HIERARCHY
ROOT root
{
	OFFSET	0	13.1	24.9
	CHANNELS 6  Xposition Yposition Zposition Xrotation Yrotation Zrotation
	JOINT spine_1
	{
		OFFSET	0	9.99999	0
		CHANNELS 3  Xrotation Yrotation Zrotation
		JOINT spine_2
		{
			OFFSET	0	112	-10
			CHANNELS 3  Xrotation Yrotation Zrotation
			JOINT spine_3
			{
				OFFSET	0	206.5	19.3
				CHANNELS 3  Xrotation Yrotation Zrotation
				JOINT spine_4
				{
					OFFSET	0	110.4	14.6
					CHANNELS 3  Xrotation Yrotation Zrotation
					JOINT neck_1
					{
						OFFSET	0	71.8	-50.3
						CHANNELS 3  Xrotation Yrotation Zrotation
						JOINT neck_2
						{
							OFFSET	0	86.2	-25.8
							CHANNELS 3  Xrotation Yrotation Zrotation
							JOINT head_ee
							{
								OFFSET	0	179.8	-8.7
								CHANNELS 3  Xrotation Yrotation Zrotation
								End Site
								{
									OFFSET	1	0	0
								}
							}
						}
					}
					JOINT left_clavicle
					{
						OFFSET	-43.2	22.4	-70.8
						CHANNELS 3  Xrotation Yrotation Zrotation
						JOINT left_shoulder
						{
							OFFSET	-93.9	-5.79999	48.7
							CHANNELS 3  Xrotation Yrotation Zrotation
							JOINT left_elbow
							{
								OFFSET	-291.4	-30.8	15.2
								CHANNELS 3  Xrotation Yrotation Zrotation
								JOINT left_lowarm_twist
								{
									OFFSET	-110.7	-3.89999	13.6
									CHANNELS 3  Xrotation Yrotation Zrotation
									JOINT left_hand
									{
										OFFSET	-110.7	-3.89999	13.6
										CHANNELS 3  Xrotation Yrotation Zrotation
										JOINT left_ee
										{
											OFFSET	-80.8	-5.10001	12.1
											CHANNELS 3  Xrotation Yrotation Zrotation
											End Site
											{
												OFFSET	1	0	0
											}
										}
									}
								}
							}
						}
					}
					JOINT right_clavicle
					{
						OFFSET	43.2	22.4	-70.8
						CHANNELS 3  Xrotation Yrotation Zrotation
						JOINT right_shoulder
						{
							OFFSET	93.9	-5.79999	48.7
							CHANNELS 3  Xrotation Yrotation Zrotation
							JOINT right_elbow
							{
								OFFSET	291.4	-30.8	15.2
								CHANNELS 3  Xrotation Yrotation Zrotation
								JOINT right_lowarm_twist
								{
									OFFSET	110.7	-3.89999	13.6
									CHANNELS 3  Xrotation Yrotation Zrotation
									JOINT right_hand
									{
										OFFSET	110.7	-3.89999	13.6
										CHANNELS 3  Xrotation Yrotation Zrotation
										JOINT right_ee
										{
											OFFSET	80.8	-5.10001	12.1
											CHANNELS 3  Xrotation Yrotation Zrotation
											End Site
											{
												OFFSET	1	0	0
											}
										}
									}
								}
							}
						}
					}
				}
			}
		}
	}
	JOINT left_hip
	{
		OFFSET	-82.8	-127.5	0.300001
		CHANNELS 3  Xrotation Yrotation Zrotation
		JOINT left_knee
		{
			OFFSET	-28.2	-396.7	2.2
			CHANNELS 3  Xrotation Yrotation Zrotation
			JOINT left_ankle
			{
				OFFSET	-11.7	-411.3	35.4
				CHANNELS 3  Xrotation Yrotation Zrotation
				JOINT left_toes
				{
					OFFSET	0	-60	-88.6
					CHANNELS 3  Xrotation Yrotation Zrotation
					JOINT left_foot_ee
					{
						OFFSET	-22.5	-16.5	-42.2
						CHANNELS 3  Xrotation Yrotation Zrotation
						End Site
						{
							OFFSET	1	0	0
						}
					}
				}
			}
		}
	}
	JOINT right_hip
	{
		OFFSET	82.8	-127.5	0.300001
		CHANNELS 3  Xrotation Yrotation Zrotation
		JOINT right_knee
		{
			OFFSET	28.2	-396.7	2.2
			CHANNELS 3  Xrotation Yrotation Zrotation
			JOINT right_ankle
			{
				OFFSET	11.7	-411.3	35.4
				CHANNELS 3  Xrotation Yrotation Zrotation
				JOINT right_toes
				{
					OFFSET	0	-60	-88.6
					CHANNELS 3  Xrotation Yrotation Zrotation
					JOINT right_foot_ee
					{
						OFFSET	22.5	-16.5	-42.2
						CHANNELS 3  Xrotation Yrotation Zrotation
						End Site
						{
							OFFSET	1	0	0
						}
					}
				}
			}
		}
	}
}
MOTION
Frames: 15
Frame Time: 0.02
1041.4 574.639 -1682.42 1.95189709441 10.1894959053 -1.35577170407 -0.425719 -0.0576911 0.632682 -0.425501 -0.0978325 0.627729 -0.42649 -0.232 0.591432 -0.426952 -0.135684 0.620648 -4.9055 16.9134 0.343235 -4.6791 30.8958 3.25061 -0.0 0.0 -0.0 5.75354 23.2272 10.6867 -28.9938 -43.697 68.4342 0.399887 -11.205 0.0392271 35.6281 -0.141609 -4.47658 0.237081 0.803544 1.91839 -0.0 0.0 -0.0 10.6365 13.4923 -21.1662 -35.9515 68.81 -24.3953 0.634408 17.4463 -0.0973417 0.424974 -0.0147797 0.0522628 -0.153616 27.939 12.8131 0.0 0.0 0.0 20.2199 -1.73701 -9.17618 -4.78026 0.16709 0.714387 -14.6742 29.5472 2.3527 3.56485 -0.0 -0.0 -0.0 0.0 -0.0 5.16785 14.5617 6.3753 -35.2884 0.194542 -5.32753 13.1395 6.38589 1.90337 32.2412 -0.0 -0.0 0.0 0.0 0.0 
1041.4 574.639 -1682.42 1.95612366934 10.8564163246 -1.37891420942 -0.425719 -0.0576911 0.632682 -0.425501 -0.0978325 0.627729 -0.42649 -0.232 0.591432 -0.426952 -0.135684 0.620648 -4.9055 16.9134 0.343235 -4.6791 30.8958 3.25061 -0.0 0.0 -0.0 5.75354 23.2272 10.6867 -28.9938 -43.697 68.4342 0.399887 -11.205 0.0392271 35.6281 -0.141609 -4.47658 0.237081 0.803544 1.91839 -0.0 0.0 -0.0 10.6365 13.4923 -21.1662 -35.9515 68.81 -24.3953 0.634408 17.4463 -0.0973417 0.424974 -0.0147797 0.0522628 -0.153616 27.939 12.8131 0.0 0.0 0.0 20.2199 -1.73701 -9.17618 -4.78026 0.16709 0.714387 -14.6742 29.5472 2.3527 3.56485 -0.0 -0.0 -0.0 0.0 -0.0 5.16785 14.5617 6.3753 -35.2884 0.194542 -5.32753 13.1395 6.38589 1.90337 32.2412 -0.0 -0.0 0.0 0.0 0.0 
1041.4 574.639 -1682.42 1.96186521833 11.6981973414 -1.40827328292 -0.425719 -0.0576911 0.632682 -0.425501 -0.0978325 0.627729 -0.42649 -0.232 0.591432 -0.426952 -0.135684 0.620648 -4.9055 16.9134 0.343235 -4.6791 30.8958 3.25061 -0.0 0.0 -0.0 5.75354 23.2272 10.6867 -28.9938 -43.697 68.4342 0.399887 -11.205 0.0392271 35.6281 -0.141609 -4.47658 0.237081 0.803544 1.91839 -0.0 0.0 -0.0 10.6365 13.4923 -21.1662 -35.9515 68.81 -24.3953 0.634408 17.4463 -0.0973417 0.424974 -0.0147797 0.0522628 -0.153616 27.939 12.8131 0.0 0.0 0.0 20.2199 -1.73701 -9.17618 -4.78026 0.16709 0.714387 -14.6742 29.5472 2.3527 3.56485 -0.0 -0.0 -0.0 0.0 -0.0 5.16785 14.5617 6.3753 -35.2884 0.194542 -5.32753 13.1395 6.38589 1.90337 32.2412 -0.0 -0.0 0.0 0.0 0.0 
1041.4 574.639 -1682.42 1.96557767138 12.2096168525 -1.42619685989 -0.425719 -0.0576911 0.632682 -0.425501 -0.0978325 0.627729 -0.42649 -0.232 0.591432 -0.426952 -0.135684 0.620648 -4.9055 16.9134 0.343235 -4.6791 30.8958 3.25061 -0.0 0.0 -0.0 5.75354 23.2272 10.6867 -28.9938 -43.697 68.4342 0.399887 -11.205 0.0392271 35.6281 -0.141609 -4.47658 0.237081 0.803544 1.91839 -0.0 0.0 -0.0 10.6365 13.4923 -21.1662 -35.9515 68.81 -24.3953 0.634408 17.4463 -0.0973417 0.424974 -0.0147797 0.0522628 -0.153616 27.939 12.8131 0.0 0.0 0.0 20.2199 -1.73701 -9.17618 -4.78026 0.16709 0.714387 -14.6742 29.5472 2.3527 3.56485 -0.0 -0.0 -0.0 0.0 -0.0 5.16785 14.5617 6.3753 -35.2884 0.194542 -5.32753 13.1395 6.38589 1.90337 32.2412 -0.0 -0.0 0.0 0.0 0.0 
1041.4 574.639 -1682.42 1.97039448417 12.8406174687 -1.44840737072 -0.425719 -0.0576911 0.632682 -0.425501 -0.0978325 0.627729 -0.42649 -0.232 0.591432 -0.426952 -0.135684 0.620648 -4.9055 16.9134 0.343235 -4.6791 30.8958 3.25061 -0.0 0.0 -0.0 5.75354 23.2272 10.6867 -28.9938 -43.697 68.4342 0.399887 -11.205 0.0392271 35.6281 -0.141609 -4.47658 0.237081 0.803544 1.91839 -0.0 0.0 -0.0 10.6365 13.4923 -21.1662 -35.9515 68.81 -24.3953 0.634408 17.4463 -0.0973417 0.424974 -0.0147797 0.0522628 -0.153616 27.939 12.8131 0.0 0.0 0.0 20.2199 -1.73701 -9.17618 -4.78026 0.16709 0.714387 -14.6742 29.5472 2.3527 3.56485 -0.0 -0.0 -0.0 0.0 -0.0 5.16785 14.5617 6.3753 -35.2884 0.194542 -5.32753 13.1395 6.38589 1.90337 32.2412 -0.0 -0.0 0.0 0.0 0.0 
1041.4 574.639 -1682.42 1.97127666805 12.9525831318 -1.45235994233 -0.425719 -0.0576911 0.632682 -0.425501 -0.0978325 0.627729 -0.42649 -0.232 0.591432 -0.426952 -0.135684 0.620648 -4.9055 16.9134 0.343235 -4.6791 30.8958 3.25061 -0.0 0.0 -0.0 5.75354 23.2272 10.6867 -28.9938 -43.697 68.4342 0.399887 -11.205 0.0392271 35.6281 -0.141609 -4.47658 0.237081 0.803544 1.91839 -0.0 0.0 -0.0 10.6365 13.4923 -21.1662 -35.9515 68.81 -24.3953 0.634408 17.4463 -0.0973417 0.424974 -0.0147797 0.0522628 -0.153616 27.939 12.8131 0.0 0.0 0.0 20.2199 -1.73701 -9.17618 -4.78026 0.16709 0.714387 -14.6742 29.5472 2.3527 3.56485 -0.0 -0.0 -0.0 0.0 -0.0 5.16785 14.5617 6.3753 -35.2884 0.194542 -5.32753 13.1395 6.38589 1.90337 32.2412 -0.0 -0.0 0.0 0.0 0.0 
1041.4 574.639 -1682.42 1.97644792308 13.5887778098 -1.47488722071 -0.425719 -0.0576911 0.632682 -0.425501 -0.0978325 0.627729 -0.42649 -0.232 0.591432 -0.426952 -0.135684 0.620648 -4.9055 16.9134 0.343235 -4.6791 30.8958 3.25061 -0.0 0.0 -0.0 5.75354 23.2272 10.6867 -28.9938 -43.697 68.4342 0.399887 -11.205 0.0392271 35.6281 -0.141609 -4.47658 0.237081 0.803544 1.91839 -0.0 0.0 -0.0 10.6365 13.4923 -21.1662 -35.9515 68.81 -24.3953 0.634408 17.4463 -0.0973417 0.424974 -0.0147797 0.0522628 -0.153616 27.939 12.8131 0.0 0.0 0.0 20.2199 -1.73701 -9.17618 -4.78026 0.16709 0.714387 -14.6742 29.5472 2.3527 3.56485 -0.0 -0.0 -0.0 0.0 -0.0 5.16785 14.5617 6.3753 -35.2884 0.194542 -5.32753 13.1395 6.38589 1.90337 32.2412 -0.0 -0.0 0.0 0.0 0.0 
983.942948282 578.902 -1724.0318313 1.07659520067 11.1671251925 0.168102300707 -0.0828734 0.00374809 -0.226196 -0.0828452 0.0181339 -0.225499 -0.0829058 0.0654372 -0.216557 -0.0829697 0.030415 -0.224173 -2.32824 17.4414 1.98544 -1.86533 30.111 4.36084 -0.0 0.0 -0.0 7.59054 23.9385 13.2397 -33.7469 -40.762 61.7063 0.524191 -14.5566 0.0669491 35.471 -0.134887 -4.45764 0.577894 -1.85846 3.09227 -0.0 0.0 -0.0 9.52095 15.0017 -18.6315 -29.5414 61.6752 -37.7078 0.612353 16.8749 -0.090834 3.44619 -0.10861 0.426712 1.24706 28.583 4.08932 0.0 0.0 0.0 21.4407 -0.927361 -9.44309 -9.8013 0.277808 1.47671 -7.99016 29.5163 1.27112 3.61111 -0.0 -0.0 -0.0 0.0 -0.0 8.92704 16.5845 5.39828 -41.3472 0.554694 -6.18583 7.00064 15.3174 1.09482 31.9095 -0.0 -0.0 0.0 0.0 0.0 
983.130875255 578.902 -1722.88685554 1.08102889311 12.3006372928 0.146301858834 -0.0828734 0.00374809 -0.226196 -0.0828452 0.0181339 -0.225499 -0.0829058 0.0654372 -0.216557 -0.0829697 0.030415 -0.224173 -2.32824 17.4414 1.98544 -1.86533 30.111 4.36084 -0.0 0.0 -0.0 7.59054 23.9385 13.2397 -33.7469 -40.762 61.7063 0.524191 -14.5566 0.0669491 35.471 -0.134887 -4.45764 0.577894 -1.85846 3.09227 -0.0 0.0 -0.0 9.52095 15.0017 -18.6315 -29.5414 61.6752 -37.7078 0.612353 16.8749 -0.090834 3.44619 -0.10861 0.426712 1.24706 28.583 4.08932 0.0 0.0 0.0 21.4407 -0.927361 -9.44309 -9.8013 0.277808 1.47671 -7.99016 29.5163 1.27112 3.61111 -0.0 -0.0 -0.0 0.0 -0.0 8.92704 16.5845 5.39828 -41.3472 0.554694 -6.18583 7.00064 15.3174 1.09482 31.9095 -0.0 -0.0 0.0 0.0 0.0 
966.298196839 583.849 -1736.19275599 0.69866213943 12.0337374287 0.633211054007 -0.0444805 -0.0438176 -0.419803 -0.0443826 -0.0170159 -0.42174 -0.0442088 0.072326 -0.41584 -0.0444501 0.00574464 -0.422044 -4.14632 17.7647 4.99169 -3.85698 28.8229 7.93534 -0.0 0.0 -0.0 8.35842 24.268 14.2974 -35.8251 -38.7741 57.777 0.674983 -18.4883 0.109858 35.061 -0.117596 -4.40816 0.911206 -1.26949 5.57693 -0.0 0.0 -0.0 9.80512 14.8328 -19.2678 -30.831 59.0852 -40.0758 0.572201 15.8256 -0.0795305 4.02364 -0.124287 0.498809 1.71804 28.8947 1.24591 0.0 0.0 0.0 20.2767 -0.165633 -9.51881 -8.22656 0.250284 1.23664 -8.41987 29.312 1.33848 1.81566 -0.0 -0.0 -0.0 0.0 -0.0 12.3206 17.6681 4.64526 -46.9791 0.969365 -6.94617 5.08145 18.6147 0.821865 30.2668 -0.0 -0.0 0.0 0.0 0.0 
959.068165768 588.561 -1743.27921353 0.0275953437729 11.9446700589 1.07210287736 0.133107 0.137984 -0.792999 0.133437 0.188163 -0.782613 0.130928 0.346812 -0.726371 0.130264 0.227746 -0.772024 -4.88318 18.0019 5.19807 -4.64538 29.2943 8.35068 -0.0 0.0 -0.0 9.55137 24.7561 15.9392 -36.7862 -36.4964 52.505 0.949525 -25.1903 0.212165 34.7827 -0.106061 -4.37451 0.588299 1.02359 4.35278 -0.0 0.0 -0.0 9.62609 13.54 -18.9238 -28.1169 55.9155 -44.1994 0.550343 15.2498 -0.0736754 5.25055 -0.15518 0.652489 2.14932 28.9245 -1.46816 0.0 0.0 0.0 19.8043 -0.254147 -9.41907 -6.73015 0.218022 1.00928 -7.14587 29.0968 1.13228 0.48566 -0.0 -0.0 -0.0 0.0 -0.0 17.0611 18.6304 2.91208 -52.4892 1.4458 -7.64791 4.70582 18.3793 0.760507 29.2861 -0.0 -0.0 0.0 0.0 0.0 
957.800025059 588.561 -1741.52515197 0.0277255288064 13.1559696885 1.07150379967 0.133107 0.137984 -0.792999 0.133437 0.188163 -0.782613 0.130928 0.346812 -0.726371 0.130264 0.227746 -0.772024 -4.88318 18.0019 5.19807 -4.64538 29.2943 8.35068 -0.0 0.0 -0.0 9.55137 24.7561 15.9392 -36.7862 -36.4964 52.505 0.949525 -25.1903 0.212165 34.7827 -0.106061 -4.37451 0.588299 1.02359 4.35278 -0.0 0.0 -0.0 9.62609 13.54 -18.9238 -28.1169 55.9155 -44.1994 0.550343 15.2498 -0.0736754 5.25055 -0.15518 0.652489 2.14932 28.9245 -1.46816 0.0 0.0 0.0 19.8043 -0.254147 -9.41907 -6.73015 0.218022 1.00928 -7.14587 29.0968 1.13228 0.48566 -0.0 -0.0 -0.0 0.0 -0.0 17.0611 18.6304 2.91208 -52.4892 1.4458 -7.64791 4.70582 18.3793 0.760507 29.2861 -0.0 -0.0 0.0 0.0 0.0 
956.58949098 588.561 -1739.77461934 0.0278669445313 14.3470417118 1.07090892675 0.133107 0.137984 -0.792999 0.133437 0.188163 -0.782613 0.130928 0.346812 -0.726371 0.130264 0.227746 -0.772024 -4.88318 18.0019 5.19807 -4.64538 29.2943 8.35068 -0.0 0.0 -0.0 9.55137 24.7561 15.9392 -36.7862 -36.4964 52.505 0.949525 -25.1903 0.212165 34.7827 -0.106061 -4.37451 0.588299 1.02359 4.35278 -0.0 0.0 -0.0 9.62609 13.54 -18.9238 -28.1169 55.9155 -44.1994 0.550343 15.2498 -0.0736754 5.25055 -0.15518 0.652489 2.14932 28.9245 -1.46816 0.0 0.0 0.0 19.8043 -0.254147 -9.41907 -6.73015 0.218022 1.00928 -7.14587 29.0968 1.13228 0.48566 -0.0 -0.0 -0.0 0.0 -0.0 17.0611 18.6304 2.91208 -52.4892 1.4458 -7.64791 4.70582 18.3793 0.760507 29.2861 -0.0 -0.0 0.0 0.0 0.0 
955.498330233 588.561 -1738.12707254 0.0280104340463 15.452932773 1.07035091565 0.133107 0.137984 -0.792999 0.133437 0.188163 -0.782613 0.130928 0.346812 -0.726371 0.130264 0.227746 -0.772024 -4.88318 18.0019 5.19807 -4.64538 29.2943 8.35068 -0.0 0.0 -0.0 9.55137 24.7561 15.9392 -36.7862 -36.4964 52.505 0.949525 -25.1903 0.212165 34.7827 -0.106061 -4.37451 0.588299 1.02359 4.35278 -0.0 0.0 -0.0 9.62609 13.54 -18.9238 -28.1169 55.9155 -44.1994 0.550343 15.2498 -0.0736754 5.25055 -0.15518 0.652489 2.14932 28.9245 -1.46816 0.0 0.0 0.0 19.8043 -0.254147 -9.41907 -6.73015 0.218022 1.00928 -7.14587 29.0968 1.13228 0.48566 -0.0 -0.0 -0.0 0.0 -0.0 17.0611 18.6304 2.91208 -52.4892 1.4458 -7.64791 4.70582 18.3793 0.760507 29.2861 -0.0 -0.0 0.0 0.0 0.0 
954.320694465 588.561 -1736.26764942 0.028184429262 16.6846633887 1.06972233699 0.133107 0.137984 -0.792999 0.133437 0.188163 -0.782613 0.130928 0.346812 -0.726371 0.130264 0.227746 -0.772024 -4.88318 18.0019 5.19807 -4.64538 29.2943 8.35068 -0.0 0.0 -0.0 9.55137 24.7561 15.9392 -36.7862 -36.4964 52.505 0.949525 -25.1903 0.212165 34.7827 -0.106061 -4.37451 0.588299 1.02359 4.35278 -0.0 0.0 -0.0 9.62609 13.54 -18.9238 -28.1169 55.9155 -44.1994 0.550343 15.2498 -0.0736754 5.25055 -0.15518 0.652489 2.14932 28.9245 -1.46816 0.0 0.0 0.0 19.8043 -0.254147 -9.41907 -6.73015 0.218022 1.00928 -7.14587 29.0968 1.13228 0.48566 -0.0 -0.0 -0.0 0.0 -0.0 17.0611 18.6304 2.91208 -52.4892 1.4458 -7.64791 4.70582 18.3793 0.760507 29.2861 -0.0 -0.0 0.0 0.0 0.0 
